<?xml version="1.0" encoding="utf-8"?>
<!-- Generator: Adobe Illustrator 19.0.0, SVG Export Plug-In . SVG Version: 6.00 Build 0)  -->
<svg version="1.1" id="Layer_1" xmlns="http://www.w3.org/2000/svg" xmlns:xlink="http://www.w3.org/1999/xlink" x="0px" y="0px"
	 viewBox="0 0 546.8 378.2" enable-background="new 0 0 546.8 378.2" xml:space="preserve">
<g id="XMLID_73_">
	<g id="XMLID_80_">
		<path id="XMLID_82_" fill="#FFFFFF" d="M523.6,270.6c4.8-4.2,8.9-7.6,12.7-11.3c2.5-2.5,5.2-3.5,9.2-2.5c-5.1,4.4-9.9,8.6-15,12.6
			c-2.3,1.8-2.2,2.9-0.2,4.7c5.5,5,10.8,10.2,16.5,15.8c-3.9,0.7-6.6,0.3-9.1-2.4c-4.2-4.5-8.8-8.6-14.1-13.7c0,6.1-0.1,11,0.1,15.8
			c0.1,2.8-0.8,3.6-3.6,3.6c-10.5,0.1-10.5,0.2-10.5-10.4c0-2.1,0-4.2,0-7.7c-10.1,19.2-25.7,25-45,21.6s-30.5-16-37.1-33.9
			c0,2.9,0,5.7,0,8.6c-0.1,18.3-0.3,36.6-2.1,54.9c-2.8,28.3-21.1,45-46.3,49.7c-18.6,3.4-37.1,3.2-55-3
			c-18.1-6.3-28.4-19.4-32.1-38c-0.5-2.4,0.1-2.9,2.4-2.9c6.8,0.1,13.5,0,20.3,0c1.4,0,2.5,0.1,2.9,1.7c4,17.1,16.5,23.5,32.3,25.4
			c9.6,1.2,19.1,0.6,28.4-2.3c18.2-5.9,27-18.1,28.1-39.1c0.2-3.4,0.2-6.8,0.2-10.1c0-9.7,0-19.4,0-29.1c-1.1-0.2-1.2,0.7-1.4,1.2
			c-12,22.3-31.3,31.5-55.9,30.5c-13.4-0.5-25.7-4.6-36.4-12.9c-2.1-1.6-2.5-2.6-0.7-4.9c3.2-3.9,6.1-8.1,9-12.2
			c0.8-1.1,1.2-1.9,2.8-0.7c30.9,22.6,68.4,10.8,79.4-25.3c5.1-16.6,5.1-33.4,0.1-50c-8.2-27.4-30.6-37.9-56.8-33.6
			c-3.2,0.5-4.4,0.1-5-3.3c-0.7-4-1.7-8-3.2-11.8c-1.2-3.1-0.1-3.7,2.7-4.3c35.7-7.7,73.9,16.5,83,52.7c1.7,6.6,2.6,13.3,3.2,20.3
			c6.5-17.8,16.9-31.6,36.4-35c19.1-3.3,35.2,1.8,45.8,20.9c0-5.9,0.1-10.6,0-15.3c-0.1-2.2,0.7-2.8,2.9-2.9
			c11.2-0.3,11.2-0.4,11.2,10.6c0,20.9,0,41.7,0,62.6C523.6,266.7,523.6,268.1,523.6,270.6z M509.7,241.3c0.1-3.7-0.2-7.9-1-12.1
			c-2.9-15.7-14.2-26.6-28.7-27.8c-17.9-1.4-30.3,6.5-35.8,23c-3.9,11.9-4,24.1-0.7,36.2c3.8,14.1,13.9,22.6,27.4,23.6
			c16.5,1.2,28-5.1,34.3-19C508.7,257.8,509.8,249.9,509.7,241.3z"/>
	</g>
	<g id="XMLID_77_">
		<path id="XMLID_78_" fill="#FFFFFF" d="M140.3,291c54.9-7.2,93.1-45.3,96.8-84.8c-65.3,8.9-148.9,6.7-162.9-50.4
			C57.7,88.2,152.3,0,152.3,0S49.8,50.1,11.1,146.8C7.8,155.1-0.4,177.2,0,194.5c0.1,5.3,3.2,21,5.7,27.2
			C14.8,257.9,72,300,140.3,291z"/>
	</g>
	<g id="XMLID_71_">
		<path id="XMLID_79_" fill="#FFFFFF" d="M84.1,136.4c0,0,115.5-15.4,142.5,31.1s-8.8,111.6-88.4,122.1s-138-93.9-138-93.9
			C-2,214.6,15,356.4,166.7,352.7C317.1,349,366.5,202.1,315.4,131S143.3,62.8,84.1,136.4z"/>
	</g>
</g>
</svg>
